<mxfile host="app.diagrams.net" modified="2021-11-30T08:15:26.499Z" agent="5.0 (Windows NT 10.0; Win64; x64) AppleWebKit/537.36 (KHTML, like Gecko) Chrome/96.0.4664.45 Safari/537.36" etag="jkNOYQLsLolOpt3sVkbP" version="15.8.7" type="github">
  <diagram id="S0Ft0tIHuT7LuqaLtZrh" name="Page-1">
    <mxGraphModel dx="1038" dy="588" grid="0" gridSize="10" guides="1" tooltips="1" connect="1" arrows="1" fold="1" page="1" pageScale="1" pageWidth="8027" pageHeight="11069" math="0" shadow="0">
      <root>
        <mxCell id="0" />
        <mxCell id="1" parent="0" />
        <mxCell id="yhTOKYdf4-Qvx64YoJoe-1" value="Internet" style="shape=datastore;whiteSpace=wrap;html=1;fillColor=#ffe6cc;strokeColor=#d79b00;" vertex="1" parent="1">
          <mxGeometry x="220" y="250" width="60" height="80" as="geometry" />
        </mxCell>
        <mxCell id="yhTOKYdf4-Qvx64YoJoe-3" value="Router" style="shape=process;whiteSpace=wrap;html=1;backgroundOutline=1;rotation=90;fillColor=#dae8fc;strokeColor=#6c8ebf;" vertex="1" parent="1">
          <mxGeometry x="340" y="265" width="90" height="50" as="geometry" />
        </mxCell>
        <mxCell id="yhTOKYdf4-Qvx64YoJoe-5" value="" style="rounded=1;whiteSpace=wrap;html=1;rotation=90;" vertex="1" parent="1">
          <mxGeometry x="460.4" y="223.36" width="180" height="118.29" as="geometry" />
        </mxCell>
        <mxCell id="yhTOKYdf4-Qvx64YoJoe-6" value="" style="rounded=1;whiteSpace=wrap;html=1;strokeWidth=2;fillWeight=4;hachureGap=8;hachureAngle=45;fillColor=#1ba1e2;sketch=1;" vertex="1" parent="1">
          <mxGeometry x="590.4" y="40" width="170" height="70" as="geometry" />
        </mxCell>
        <mxCell id="yhTOKYdf4-Qvx64YoJoe-7" value="" style="ellipse;whiteSpace=wrap;html=1;strokeWidth=2;fillWeight=2;hachureGap=8;fillColor=#990000;fillStyle=dots;sketch=1;" vertex="1" parent="1">
          <mxGeometry x="640.4" y="380" width="120" height="60" as="geometry" />
        </mxCell>
        <mxCell id="yhTOKYdf4-Qvx64YoJoe-8" value="" style="endArrow=classic;html=1;rounded=0;entryX=0.5;entryY=1;entryDx=0;entryDy=0;exitX=1;exitY=0.5;exitDx=0;exitDy=0;" edge="1" parent="1" source="yhTOKYdf4-Qvx64YoJoe-1" target="yhTOKYdf4-Qvx64YoJoe-3">
          <mxGeometry width="50" height="50" relative="1" as="geometry">
            <mxPoint x="280" y="310" as="sourcePoint" />
            <mxPoint x="330" y="260" as="targetPoint" />
          </mxGeometry>
        </mxCell>
        <mxCell id="yhTOKYdf4-Qvx64YoJoe-9" value="" style="endArrow=classic;html=1;rounded=0;exitX=0.5;exitY=0;exitDx=0;exitDy=0;" edge="1" parent="1" source="yhTOKYdf4-Qvx64YoJoe-3">
          <mxGeometry width="50" height="50" relative="1" as="geometry">
            <mxPoint x="420" y="300" as="sourcePoint" />
            <mxPoint x="490" y="290" as="targetPoint" />
          </mxGeometry>
        </mxCell>
        <mxCell id="yhTOKYdf4-Qvx64YoJoe-11" value="Analysis of packet" style="text;html=1;strokeColor=#d6b656;fillColor=#fff2cc;align=center;verticalAlign=middle;whiteSpace=wrap;rounded=0;" vertex="1" parent="1">
          <mxGeometry x="498.75" y="210" width="100" height="20" as="geometry" />
        </mxCell>
        <mxCell id="yhTOKYdf4-Qvx64YoJoe-13" value="Thread detection" style="text;html=1;strokeColor=#d6b656;fillColor=#fff2cc;align=center;verticalAlign=middle;whiteSpace=wrap;rounded=0;" vertex="1" parent="1">
          <mxGeometry x="498.75" y="272.5" width="100" height="20" as="geometry" />
        </mxCell>
        <mxCell id="yhTOKYdf4-Qvx64YoJoe-14" value="DPI detection" style="text;html=1;strokeColor=#d6b656;fillColor=#fff2cc;align=center;verticalAlign=middle;whiteSpace=wrap;rounded=0;" vertex="1" parent="1">
          <mxGeometry x="500.32" y="330" width="100" height="20" as="geometry" />
        </mxCell>
        <mxCell id="yhTOKYdf4-Qvx64YoJoe-16" value="" style="endArrow=classic;html=1;rounded=0;exitX=0.5;exitY=1;exitDx=0;exitDy=0;entryX=0.486;entryY=0.011;entryDx=0;entryDy=0;entryPerimeter=0;" edge="1" parent="1" source="yhTOKYdf4-Qvx64YoJoe-13" target="yhTOKYdf4-Qvx64YoJoe-14">
          <mxGeometry width="50" height="50" relative="1" as="geometry">
            <mxPoint x="540" y="340" as="sourcePoint" />
            <mxPoint x="590" y="290" as="targetPoint" />
          </mxGeometry>
        </mxCell>
        <mxCell id="yhTOKYdf4-Qvx64YoJoe-17" value="Processing" style="text;html=1;strokeColor=#666666;fillColor=#f5f5f5;align=center;verticalAlign=middle;whiteSpace=wrap;rounded=0;fontColor=#333333;" vertex="1" parent="1">
          <mxGeometry x="540.32" y="235" width="60" height="15" as="geometry" />
        </mxCell>
        <mxCell id="yhTOKYdf4-Qvx64YoJoe-22" value="" style="endArrow=classic;html=1;rounded=0;exitX=0.36;exitY=1.022;exitDx=0;exitDy=0;exitPerimeter=0;entryX=0.363;entryY=0.057;entryDx=0;entryDy=0;entryPerimeter=0;" edge="1" parent="1" source="yhTOKYdf4-Qvx64YoJoe-11" target="yhTOKYdf4-Qvx64YoJoe-13">
          <mxGeometry width="50" height="50" relative="1" as="geometry">
            <mxPoint x="520" y="290" as="sourcePoint" />
            <mxPoint x="570" y="240" as="targetPoint" />
          </mxGeometry>
        </mxCell>
        <mxCell id="yhTOKYdf4-Qvx64YoJoe-23" value="" style="edgeStyle=segmentEdgeStyle;endArrow=classic;html=1;rounded=0;exitX=1;exitY=0.5;exitDx=0;exitDy=0;entryX=0.5;entryY=0;entryDx=0;entryDy=0;" edge="1" parent="1" source="yhTOKYdf4-Qvx64YoJoe-13" target="yhTOKYdf4-Qvx64YoJoe-7">
          <mxGeometry width="50" height="50" relative="1" as="geometry">
            <mxPoint x="700" y="340" as="sourcePoint" />
            <mxPoint x="740" y="380" as="targetPoint" />
            <Array as="points">
              <mxPoint x="700" y="283" />
            </Array>
          </mxGeometry>
        </mxCell>
        <mxCell id="yhTOKYdf4-Qvx64YoJoe-25" value="" style="edgeStyle=segmentEdgeStyle;endArrow=classic;html=1;rounded=0;exitX=1;exitY=0.5;exitDx=0;exitDy=0;" edge="1" parent="1" source="yhTOKYdf4-Qvx64YoJoe-14">
          <mxGeometry width="50" height="50" relative="1" as="geometry">
            <mxPoint x="620" y="340" as="sourcePoint" />
            <mxPoint x="680" y="110" as="targetPoint" />
            <Array as="points">
              <mxPoint x="680" y="340" />
            </Array>
          </mxGeometry>
        </mxCell>
        <mxCell id="yhTOKYdf4-Qvx64YoJoe-26" value="Malware Detections" style="text;html=1;strokeColor=none;fillColor=none;align=center;verticalAlign=middle;whiteSpace=wrap;rounded=0;" vertex="1" parent="1">
          <mxGeometry x="640.4" y="440" width="120" height="30" as="geometry" />
        </mxCell>
        <mxCell id="yhTOKYdf4-Qvx64YoJoe-27" value="WedGUI" style="text;html=1;strokeColor=none;fillColor=none;align=center;verticalAlign=middle;whiteSpace=wrap;rounded=0;" vertex="1" parent="1">
          <mxGeometry x="645.4" y="10" width="60" height="30" as="geometry" />
        </mxCell>
      </root>
    </mxGraphModel>
  </diagram>
</mxfile>
